<mxfile host="app.diagrams.net" modified="2020-06-18T09:29:06.144Z" agent="5.0 (Windows NT 6.1; Win64; x64) AppleWebKit/537.36 (KHTML, like Gecko) Chrome/83.0.4103.97 Safari/537.36" etag="npYUvhwbkuXkxge0uPn2" version="13.2.6" type="github">
  <diagram id="GmI4eg5Vj9IhphaG-CfB" name="Page-1">
    <mxGraphModel dx="1422" dy="762" grid="1" gridSize="10" guides="1" tooltips="1" connect="1" arrows="1" fold="1" page="1" pageScale="1" pageWidth="827" pageHeight="1169" math="0" shadow="0">
      <root>
        <mxCell id="0" />
        <mxCell id="1" parent="0" />
        <mxCell id="q2YPIV2rqgiJtNDVI2gY-1" value="" style="html=1;points=[];perimeter=orthogonalPerimeter;" vertex="1" parent="1">
          <mxGeometry x="409" y="146" width="10" height="40" as="geometry" />
        </mxCell>
        <mxCell id="q2YPIV2rqgiJtNDVI2gY-2" value="" style="html=1;points=[];perimeter=orthogonalPerimeter;" vertex="1" parent="1">
          <mxGeometry x="409" y="201" width="10" height="40" as="geometry" />
        </mxCell>
        <mxCell id="q2YPIV2rqgiJtNDVI2gY-3" value="" style="html=1;points=[];perimeter=orthogonalPerimeter;" vertex="1" parent="1">
          <mxGeometry x="409" y="253" width="10" height="40" as="geometry" />
        </mxCell>
        <mxCell id="q2YPIV2rqgiJtNDVI2gY-4" value="" style="html=1;points=[];perimeter=orthogonalPerimeter;" vertex="1" parent="1">
          <mxGeometry x="409" y="308" width="10" height="40" as="geometry" />
        </mxCell>
        <mxCell id="q2YPIV2rqgiJtNDVI2gY-5" value="" style="html=1;points=[];perimeter=orthogonalPerimeter;" vertex="1" parent="1">
          <mxGeometry x="169" y="146" width="10" height="97" as="geometry" />
        </mxCell>
        <mxCell id="q2YPIV2rqgiJtNDVI2gY-6" value="" style="html=1;points=[];perimeter=orthogonalPerimeter;" vertex="1" parent="1">
          <mxGeometry x="649" y="148" width="10" height="40" as="geometry" />
        </mxCell>
        <mxCell id="q2YPIV2rqgiJtNDVI2gY-7" value="getApprovePaging(req)" style="html=1;verticalAlign=bottom;endArrow=block;" edge="1" parent="1">
          <mxGeometry x="-0.0578" width="80" relative="1" as="geometry">
            <mxPoint x="180" y="158" as="sourcePoint" />
            <mxPoint x="410" y="158" as="targetPoint" />
            <mxPoint as="offset" />
          </mxGeometry>
        </mxCell>
        <mxCell id="q2YPIV2rqgiJtNDVI2gY-8" value="selectApproveSearchCntAll()" style="html=1;verticalAlign=bottom;endArrow=block;" edge="1" parent="1">
          <mxGeometry x="-0.0578" width="80" relative="1" as="geometry">
            <mxPoint x="420" y="158" as="sourcePoint" />
            <mxPoint x="650" y="158" as="targetPoint" />
            <mxPoint as="offset" />
          </mxGeometry>
        </mxCell>
        <mxCell id="q2YPIV2rqgiJtNDVI2gY-9" value="" style="html=1;points=[];perimeter=orthogonalPerimeter;" vertex="1" parent="1">
          <mxGeometry x="649" y="203" width="10" height="40" as="geometry" />
        </mxCell>
        <mxCell id="q2YPIV2rqgiJtNDVI2gY-10" value="selectApproveSearch(search, paging)" style="html=1;verticalAlign=bottom;endArrow=block;" edge="1" parent="1">
          <mxGeometry x="-0.0578" width="80" relative="1" as="geometry">
            <mxPoint x="420" y="211" as="sourcePoint" />
            <mxPoint x="650" y="211" as="targetPoint" />
            <mxPoint as="offset" />
          </mxGeometry>
        </mxCell>
        <mxCell id="q2YPIV2rqgiJtNDVI2gY-11" value="List&amp;lt;Document&amp;gt;" style="html=1;verticalAlign=bottom;endArrow=block;" edge="1" parent="1">
          <mxGeometry x="0.0261" width="80" relative="1" as="geometry">
            <mxPoint x="649" y="232" as="sourcePoint" />
            <mxPoint x="419" y="232" as="targetPoint" />
            <mxPoint as="offset" />
          </mxGeometry>
        </mxCell>
        <mxCell id="q2YPIV2rqgiJtNDVI2gY-12" value="List&amp;lt;Document&amp;gt;" style="html=1;verticalAlign=bottom;endArrow=block;" edge="1" parent="1">
          <mxGeometry x="0.0261" width="80" relative="1" as="geometry">
            <mxPoint x="409" y="233" as="sourcePoint" />
            <mxPoint x="179" y="233" as="targetPoint" />
            <mxPoint as="offset" />
          </mxGeometry>
        </mxCell>
        <mxCell id="q2YPIV2rqgiJtNDVI2gY-13" value="" style="html=1;points=[];perimeter=orthogonalPerimeter;" vertex="1" parent="1">
          <mxGeometry x="169" y="253" width="10" height="97" as="geometry" />
        </mxCell>
        <mxCell id="q2YPIV2rqgiJtNDVI2gY-14" value="" style="html=1;points=[];perimeter=orthogonalPerimeter;" vertex="1" parent="1">
          <mxGeometry x="649" y="255" width="10" height="40" as="geometry" />
        </mxCell>
        <mxCell id="q2YPIV2rqgiJtNDVI2gY-15" value="getApprovePaging(req)" style="html=1;verticalAlign=bottom;endArrow=block;" edge="1" parent="1">
          <mxGeometry x="-0.0578" width="80" relative="1" as="geometry">
            <mxPoint x="180" y="265" as="sourcePoint" />
            <mxPoint x="410" y="265" as="targetPoint" />
            <mxPoint as="offset" />
          </mxGeometry>
        </mxCell>
        <mxCell id="q2YPIV2rqgiJtNDVI2gY-16" value="selectApproveCntAll()" style="html=1;verticalAlign=bottom;endArrow=block;" edge="1" parent="1">
          <mxGeometry x="-0.0578" width="80" relative="1" as="geometry">
            <mxPoint x="420" y="265" as="sourcePoint" />
            <mxPoint x="650" y="265" as="targetPoint" />
            <mxPoint as="offset" />
          </mxGeometry>
        </mxCell>
        <mxCell id="q2YPIV2rqgiJtNDVI2gY-17" value="" style="html=1;points=[];perimeter=orthogonalPerimeter;" vertex="1" parent="1">
          <mxGeometry x="649" y="310" width="10" height="40" as="geometry" />
        </mxCell>
        <mxCell id="q2YPIV2rqgiJtNDVI2gY-18" value="selectApproveAll(paging)" style="html=1;verticalAlign=bottom;endArrow=block;" edge="1" parent="1">
          <mxGeometry x="-0.0578" width="80" relative="1" as="geometry">
            <mxPoint x="420" y="317.9999999999998" as="sourcePoint" />
            <mxPoint x="650" y="317.9999999999998" as="targetPoint" />
            <mxPoint as="offset" />
          </mxGeometry>
        </mxCell>
        <mxCell id="q2YPIV2rqgiJtNDVI2gY-19" value="List&amp;lt;Document&amp;gt;" style="html=1;verticalAlign=bottom;endArrow=block;" edge="1" parent="1">
          <mxGeometry x="0.0261" width="80" relative="1" as="geometry">
            <mxPoint x="649" y="339" as="sourcePoint" />
            <mxPoint x="419" y="339" as="targetPoint" />
            <mxPoint as="offset" />
          </mxGeometry>
        </mxCell>
        <mxCell id="q2YPIV2rqgiJtNDVI2gY-20" value="List&amp;lt;Document&amp;gt;" style="html=1;verticalAlign=bottom;endArrow=block;" edge="1" parent="1">
          <mxGeometry x="0.0261" width="80" relative="1" as="geometry">
            <mxPoint x="409" y="340" as="sourcePoint" />
            <mxPoint x="179" y="340" as="targetPoint" />
            <mxPoint as="offset" />
          </mxGeometry>
        </mxCell>
        <mxCell id="q2YPIV2rqgiJtNDVI2gY-21" value="getListApprovePaging(req, paging))" style="html=1;verticalAlign=bottom;endArrow=block;" edge="1" parent="1">
          <mxGeometry x="-0.0578" width="80" relative="1" as="geometry">
            <mxPoint x="179" y="210" as="sourcePoint" />
            <mxPoint x="409" y="210" as="targetPoint" />
            <mxPoint as="offset" />
          </mxGeometry>
        </mxCell>
        <mxCell id="q2YPIV2rqgiJtNDVI2gY-22" value="getListApprovePaging(req, paging))" style="html=1;verticalAlign=bottom;endArrow=block;" edge="1" parent="1">
          <mxGeometry x="-0.0578" width="80" relative="1" as="geometry">
            <mxPoint x="178" y="317.9999999999998" as="sourcePoint" />
            <mxPoint x="408" y="317.9999999999998" as="targetPoint" />
            <mxPoint as="offset" />
          </mxGeometry>
        </mxCell>
        <mxCell id="q2YPIV2rqgiJtNDVI2gY-23" value="paging" style="html=1;verticalAlign=bottom;endArrow=block;" edge="1" parent="1">
          <mxGeometry x="0.0348" y="-3" width="80" relative="1" as="geometry">
            <mxPoint x="649" y="180" as="sourcePoint" />
            <mxPoint x="419" y="180" as="targetPoint" />
            <mxPoint as="offset" />
          </mxGeometry>
        </mxCell>
        <mxCell id="q2YPIV2rqgiJtNDVI2gY-24" value="paging" style="html=1;verticalAlign=bottom;endArrow=block;" edge="1" parent="1">
          <mxGeometry x="0.0348" y="-3" width="80" relative="1" as="geometry">
            <mxPoint x="409" y="180" as="sourcePoint" />
            <mxPoint x="179" y="180" as="targetPoint" />
            <mxPoint as="offset" />
          </mxGeometry>
        </mxCell>
        <mxCell id="q2YPIV2rqgiJtNDVI2gY-25" value="paging" style="html=1;verticalAlign=bottom;endArrow=block;" edge="1" parent="1">
          <mxGeometry x="0.0348" y="-3" width="80" relative="1" as="geometry">
            <mxPoint x="649" y="286" as="sourcePoint" />
            <mxPoint x="419" y="286" as="targetPoint" />
            <mxPoint as="offset" />
          </mxGeometry>
        </mxCell>
        <mxCell id="q2YPIV2rqgiJtNDVI2gY-26" value="paging" style="html=1;verticalAlign=bottom;endArrow=block;" edge="1" parent="1">
          <mxGeometry x="0.0348" y="-3" width="80" relative="1" as="geometry">
            <mxPoint x="409" y="287" as="sourcePoint" />
            <mxPoint x="179" y="287" as="targetPoint" />
            <mxPoint as="offset" />
          </mxGeometry>
        </mxCell>
        <mxCell id="q2YPIV2rqgiJtNDVI2gY-27" value="&lt;span style=&quot;font-size: 10pt ; font-family: &amp;#34;arial&amp;#34;&quot;&gt;DocumentApproveListController&lt;/span&gt;" style="shape=umlLifeline;perimeter=lifelinePerimeter;whiteSpace=wrap;html=1;container=1;collapsible=0;recursiveResize=0;outlineConnect=0;" vertex="1" parent="1">
          <mxGeometry x="78" y="80" width="192" height="350" as="geometry" />
        </mxCell>
        <mxCell id="q2YPIV2rqgiJtNDVI2gY-28" value="Service" style="shape=umlLifeline;perimeter=lifelinePerimeter;whiteSpace=wrap;html=1;container=1;collapsible=0;recursiveResize=0;outlineConnect=0;" vertex="1" parent="1">
          <mxGeometry x="364" y="80" width="100" height="350" as="geometry" />
        </mxCell>
        <mxCell id="q2YPIV2rqgiJtNDVI2gY-29" value="" style="html=1;points=[];perimeter=orthogonalPerimeter;" vertex="1" parent="q2YPIV2rqgiJtNDVI2gY-28">
          <mxGeometry x="45" y="66" width="10" height="40" as="geometry" />
        </mxCell>
        <mxCell id="q2YPIV2rqgiJtNDVI2gY-30" value="" style="html=1;points=[];perimeter=orthogonalPerimeter;" vertex="1" parent="q2YPIV2rqgiJtNDVI2gY-28">
          <mxGeometry x="45" y="121" width="10" height="40" as="geometry" />
        </mxCell>
        <mxCell id="q2YPIV2rqgiJtNDVI2gY-31" value="" style="html=1;points=[];perimeter=orthogonalPerimeter;" vertex="1" parent="q2YPIV2rqgiJtNDVI2gY-28">
          <mxGeometry x="45" y="173" width="10" height="40" as="geometry" />
        </mxCell>
        <mxCell id="q2YPIV2rqgiJtNDVI2gY-32" value="" style="html=1;points=[];perimeter=orthogonalPerimeter;" vertex="1" parent="q2YPIV2rqgiJtNDVI2gY-28">
          <mxGeometry x="45" y="228" width="10" height="40" as="geometry" />
        </mxCell>
        <mxCell id="q2YPIV2rqgiJtNDVI2gY-37" value="Dao" style="shape=umlLifeline;perimeter=lifelinePerimeter;whiteSpace=wrap;html=1;container=1;collapsible=0;recursiveResize=0;outlineConnect=0;" vertex="1" parent="1">
          <mxGeometry x="604" y="80" width="100" height="350" as="geometry" />
        </mxCell>
        <mxCell id="q2YPIV2rqgiJtNDVI2gY-38" value="" style="html=1;points=[];perimeter=orthogonalPerimeter;" vertex="1" parent="q2YPIV2rqgiJtNDVI2gY-37">
          <mxGeometry x="-435" y="66" width="10" height="97" as="geometry" />
        </mxCell>
        <mxCell id="q2YPIV2rqgiJtNDVI2gY-39" value="" style="html=1;points=[];perimeter=orthogonalPerimeter;" vertex="1" parent="q2YPIV2rqgiJtNDVI2gY-37">
          <mxGeometry x="45" y="68" width="10" height="40" as="geometry" />
        </mxCell>
        <mxCell id="q2YPIV2rqgiJtNDVI2gY-40" value="getApprovePaging(req)" style="html=1;verticalAlign=bottom;endArrow=block;" edge="1" parent="q2YPIV2rqgiJtNDVI2gY-37">
          <mxGeometry x="-0.0578" width="80" relative="1" as="geometry">
            <mxPoint x="-424" y="78" as="sourcePoint" />
            <mxPoint x="-194" y="78" as="targetPoint" />
            <mxPoint as="offset" />
          </mxGeometry>
        </mxCell>
        <mxCell id="q2YPIV2rqgiJtNDVI2gY-41" value="selectApproveSearchCntAll()" style="html=1;verticalAlign=bottom;endArrow=block;" edge="1" parent="q2YPIV2rqgiJtNDVI2gY-37">
          <mxGeometry x="-0.0578" width="80" relative="1" as="geometry">
            <mxPoint x="-184" y="78" as="sourcePoint" />
            <mxPoint x="46" y="78" as="targetPoint" />
            <mxPoint as="offset" />
          </mxGeometry>
        </mxCell>
        <mxCell id="q2YPIV2rqgiJtNDVI2gY-42" value="" style="html=1;points=[];perimeter=orthogonalPerimeter;" vertex="1" parent="q2YPIV2rqgiJtNDVI2gY-37">
          <mxGeometry x="45" y="123" width="10" height="40" as="geometry" />
        </mxCell>
        <mxCell id="q2YPIV2rqgiJtNDVI2gY-43" value="selectApproveSearch(search, paging)" style="html=1;verticalAlign=bottom;endArrow=block;" edge="1" parent="q2YPIV2rqgiJtNDVI2gY-37">
          <mxGeometry x="-0.0578" width="80" relative="1" as="geometry">
            <mxPoint x="-184" y="131" as="sourcePoint" />
            <mxPoint x="46" y="131" as="targetPoint" />
            <mxPoint as="offset" />
          </mxGeometry>
        </mxCell>
        <mxCell id="q2YPIV2rqgiJtNDVI2gY-44" value="List&amp;lt;Document&amp;gt;" style="html=1;verticalAlign=bottom;endArrow=block;" edge="1" parent="q2YPIV2rqgiJtNDVI2gY-37">
          <mxGeometry x="0.0261" width="80" relative="1" as="geometry">
            <mxPoint x="45" y="152" as="sourcePoint" />
            <mxPoint x="-185" y="152" as="targetPoint" />
            <mxPoint as="offset" />
          </mxGeometry>
        </mxCell>
        <mxCell id="q2YPIV2rqgiJtNDVI2gY-45" value="List&amp;lt;Document&amp;gt;" style="html=1;verticalAlign=bottom;endArrow=block;" edge="1" parent="q2YPIV2rqgiJtNDVI2gY-37">
          <mxGeometry x="0.0261" width="80" relative="1" as="geometry">
            <mxPoint x="-195" y="153" as="sourcePoint" />
            <mxPoint x="-425" y="153" as="targetPoint" />
            <mxPoint as="offset" />
          </mxGeometry>
        </mxCell>
        <mxCell id="q2YPIV2rqgiJtNDVI2gY-46" value="" style="html=1;points=[];perimeter=orthogonalPerimeter;" vertex="1" parent="q2YPIV2rqgiJtNDVI2gY-37">
          <mxGeometry x="-435" y="173" width="10" height="97" as="geometry" />
        </mxCell>
        <mxCell id="q2YPIV2rqgiJtNDVI2gY-47" value="" style="html=1;points=[];perimeter=orthogonalPerimeter;" vertex="1" parent="q2YPIV2rqgiJtNDVI2gY-37">
          <mxGeometry x="45" y="175" width="10" height="40" as="geometry" />
        </mxCell>
        <mxCell id="q2YPIV2rqgiJtNDVI2gY-48" value="getApprovePaging(req)" style="html=1;verticalAlign=bottom;endArrow=block;" edge="1" parent="q2YPIV2rqgiJtNDVI2gY-37">
          <mxGeometry x="-0.0578" width="80" relative="1" as="geometry">
            <mxPoint x="-424" y="185" as="sourcePoint" />
            <mxPoint x="-194" y="185" as="targetPoint" />
            <mxPoint as="offset" />
          </mxGeometry>
        </mxCell>
        <mxCell id="q2YPIV2rqgiJtNDVI2gY-49" value="selectApproveCntAll()" style="html=1;verticalAlign=bottom;endArrow=block;" edge="1" parent="q2YPIV2rqgiJtNDVI2gY-37">
          <mxGeometry x="-0.0578" width="80" relative="1" as="geometry">
            <mxPoint x="-184" y="185" as="sourcePoint" />
            <mxPoint x="46" y="185" as="targetPoint" />
            <mxPoint as="offset" />
          </mxGeometry>
        </mxCell>
        <mxCell id="q2YPIV2rqgiJtNDVI2gY-50" value="" style="html=1;points=[];perimeter=orthogonalPerimeter;" vertex="1" parent="q2YPIV2rqgiJtNDVI2gY-37">
          <mxGeometry x="45" y="230" width="10" height="40" as="geometry" />
        </mxCell>
        <mxCell id="q2YPIV2rqgiJtNDVI2gY-51" value="selectApproveAll(paging)" style="html=1;verticalAlign=bottom;endArrow=block;" edge="1" parent="q2YPIV2rqgiJtNDVI2gY-37">
          <mxGeometry x="-0.0578" width="80" relative="1" as="geometry">
            <mxPoint x="-184" y="238" as="sourcePoint" />
            <mxPoint x="46" y="238" as="targetPoint" />
            <mxPoint as="offset" />
          </mxGeometry>
        </mxCell>
        <mxCell id="q2YPIV2rqgiJtNDVI2gY-52" value="List&amp;lt;Document&amp;gt;" style="html=1;verticalAlign=bottom;endArrow=block;" edge="1" parent="q2YPIV2rqgiJtNDVI2gY-37">
          <mxGeometry x="0.0261" width="80" relative="1" as="geometry">
            <mxPoint x="45" y="259" as="sourcePoint" />
            <mxPoint x="-185" y="259" as="targetPoint" />
            <mxPoint as="offset" />
          </mxGeometry>
        </mxCell>
        <mxCell id="q2YPIV2rqgiJtNDVI2gY-53" value="List&amp;lt;Document&amp;gt;" style="html=1;verticalAlign=bottom;endArrow=block;" edge="1" parent="q2YPIV2rqgiJtNDVI2gY-37">
          <mxGeometry x="0.0261" width="80" relative="1" as="geometry">
            <mxPoint x="-195" y="260" as="sourcePoint" />
            <mxPoint x="-425" y="260" as="targetPoint" />
            <mxPoint as="offset" />
          </mxGeometry>
        </mxCell>
      </root>
    </mxGraphModel>
  </diagram>
</mxfile>
